<?xml version="1.0" standalone="no"?>
<!DOCTYPE svg PUBLIC "-//W3C//DTD SVG 20010904//EN"
 "http://www.w3.org/TR/2001/REC-SVG-20010904/DTD/svg10.dtd">
<svg version="1.0" xmlns="http://www.w3.org/2000/svg"
 width="594.000000pt" height="420.000000pt" viewBox="0 0 594.000000 420.000000"
 preserveAspectRatio="xMidYMid meet">

<g transform="translate(0.000000,420.000000) scale(0.100000,-0.100000)"
fill="#000000" stroke="none">
<path d="M2974 3120 c0 -179 2 -252 3 -162 2 89 2 235 0 325 -1 89 -3 16 -3
-163z"/>
<path d="M2582 3043 c66 -164 122 -300 124 -302 2 -2 7 -2 10 2 9 9 -229 597
-242 597 -6 0 42 -134 108 -297z"/>
<path d="M3482 3240 c-102 -217 -222 -482 -222 -491 0 -8 5 -7 15 1 8 7 15 16
15 21 0 4 54 125 121 269 66 143 118 266 116 273 -3 6 -23 -26 -45 -73z"/>
<path d="M2930 3050 c0 -160 4 -250 10 -250 6 0 10 90 10 250 0 160 -4 250
-10 250 -6 0 -10 -90 -10 -250z"/>
<path d="M3000 3050 c0 -160 4 -250 10 -250 6 0 10 90 10 250 0 160 -4 250
-10 250 -6 0 -10 -90 -10 -250z"/>
<path d="M2553 3213 c5 -19 159 -399 178 -443 7 -16 13 -20 16 -12 6 17 -177
472 -190 472 -5 0 -7 -8 -4 -17z"/>
<path d="M3396 3138 c-19 -40 -66 -142 -105 -226 -39 -85 -71 -156 -71 -158 0
-2 5 -4 10 -4 6 0 19 19 29 43 10 23 33 74 51 112 18 39 41 88 50 110 10 22
34 75 54 118 19 42 31 77 25 77 -5 0 -25 -33 -43 -72z"/>
<path d="M2490 3193 c0 -7 39 -108 86 -225 47 -117 89 -222 93 -232 4 -11 10
-15 14 -10 3 6 -35 111 -85 235 -84 208 -108 261 -108 232z"/>
<path d="M3453 3093 c-123 -266 -166 -364 -160 -370 4 -3 9 -4 11 -2 3 3 189
412 203 447 3 6 1 12 -4 12 -5 0 -28 -39 -50 -87z"/>
<path d="M2890 2970 c0 -113 4 -180 10 -180 6 0 10 67 10 180 0 113 -4 180
-10 180 -6 0 -10 -67 -10 -180z"/>
<path d="M3032 2973 c2 -130 6 -177 16 -181 9 -3 12 37 12 177 0 155 -2 181
-15 181 -13 0 -15 -24 -13 -177z"/>
<path d="M2644 3083 c48 -129 131 -321 138 -317 4 3 1 22 -8 42 -8 20 -38 94
-66 165 -28 70 -55 127 -60 127 -6 0 -7 -8 -4 -17z"/>
<path d="M3261 2928 c-40 -87 -71 -162 -67 -165 3 -4 8 -4 10 -2 4 3 46 97
122 266 13 29 20 54 16 56 -4 3 -40 -67 -81 -155z"/>
<path d="M2046 3062 c-4 -7 76 -95 232 -254 47 -48 83 -90 80 -93 -3 -3 -57
47 -120 111 -63 64 -119 115 -125 113 -6 -2 72 -89 173 -193 102 -104 187
-186 191 -182 4 3 -15 29 -42 56 -27 27 -46 52 -42 56 3 4 28 -17 55 -47 27
-29 51 -48 54 -43 3 5 -37 55 -90 111 -215 226 -361 372 -366 365z m342 -371
c3 -8 -1 -12 -9 -9 -7 2 -15 10 -17 17 -3 8 1 12 9 9 7 -2 15 -10 17 -17z"/>
<path d="M2510 3044 c0 -5 27 -77 61 -159 33 -83 64 -159 68 -169 4 -11 10
-15 13 -10 7 10 -115 321 -132 338 -6 6 -10 6 -10 0z"/>
<path d="M2850 2904 c0 -81 4 -123 10 -119 6 4 10 57 10 126 0 73 -4 119 -10
119 -6 0 -10 -49 -10 -126z"/>
<path d="M3070 2910 c0 -73 4 -120 10 -120 6 0 10 47 10 120 0 73 -4 120 -10
120 -6 0 -10 -47 -10 -120z"/>
<path d="M3390 2870 c-40 -88 -70 -163 -67 -167 4 -3 30 43 58 103 84 178 98
213 90 218 -5 3 -41 -67 -81 -154z"/>
<path d="M2727 3003 c-8 -13 74 -215 90 -220 7 -3 -6 40 -28 94 -22 54 -44
107 -48 117 -5 11 -10 15 -14 9z"/>
<path d="M2162 2989 c4 -22 353 -380 362 -372 4 4 -19 33 -51 65 -31 31 -54
60 -51 64 4 3 33 -22 66 -57 32 -34 61 -58 64 -53 8 12 -248 281 -258 271 -4
-4 23 -39 61 -77 38 -38 66 -72 63 -75 -3 -3 -62 52 -132 122 -70 70 -126 121
-124 112z"/>
<path d="M3233 2960 c-11 -25 -34 -74 -51 -110 -16 -36 -27 -69 -24 -74 7 -13
104 194 99 214 -2 9 -12 -3 -24 -30z"/>
<path d="M3919 2967 c-305 -272 -439 -396 -431 -401 8 -5 17 3 258 220 94 84
183 164 198 178 16 13 24 26 19 29 -4 3 -24 -9 -44 -26z"/>
<path d="M3795 2903 c-140 -124 -331 -298 -333 -305 -9 -20 18 -3 78 50 139
123 300 272 301 278 2 15 -9 10 -46 -23z"/>
<path d="M2517 2923 c-4 -7 76 -219 88 -231 19 -20 9 21 -30 118 -48 121 -50
126 -58 113z"/>
<path d="M3414 2823 c-60 -129 -65 -143 -54 -143 6 0 21 25 35 55 14 30 36 80
50 110 14 30 20 55 15 55 -6 0 -27 -35 -46 -77z"/>
<path d="M3700 2723 c-96 -86 -179 -162 -183 -170 -20 -33 17 -5 133 99 169
152 247 228 235 228 -6 0 -89 -70 -185 -157z"/>
<path d="M3564 2744 c-71 -63 -128 -117 -126 -120 6 -10 23 2 120 88 57 50
115 101 129 114 14 12 21 24 15 28 -5 3 -68 -46 -138 -110z"/>
<path d="M2409 2833 c17 -31 171 -178 171 -164 0 7 -37 51 -82 97 -78 80 -110
104 -89 67z"/>
<path d="M2192 2801 c7 -19 255 -270 261 -265 7 7 -243 274 -256 274 -5 0 -7
-4 -5 -9z"/>
<path d="M3492 2732 c-75 -70 -103 -105 -68 -85 25 15 166 146 166 154 0 18
-17 6 -98 -69z"/>
<path d="M2803 2726 c-212 -69 -360 -218 -425 -428 -33 -109 -31 -264 6 -373
69 -202 210 -343 411 -410 68 -23 97 -27 190 -27 93 0 122 4 190 27 257 86
426 305 442 575 15 236 -127 484 -337 590 -102 51 -182 70 -299 70 -83 -1
-122 -6 -178 -24z"/>
<path d="M3718 2693 c-34 -32 -81 -75 -103 -95 -22 -20 -51 -46 -64 -57 -13
-12 -21 -24 -18 -28 4 -3 29 14 56 38 28 24 81 71 119 104 38 33 74 68 81 78
22 34 -9 16 -71 -40z"/>
<path d="M2247 2694 c-7 -12 170 -200 179 -191 4 4 -13 29 -38 55 -24 26 -65
69 -90 96 -25 26 -48 44 -51 40z"/>
<path d="M1750 2642 c0 -10 600 -276 607 -268 9 8 13 6 -127 69 -69 30 -201
90 -293 131 -167 76 -187 83 -187 68z"/>
<path d="M3699 2617 c-126 -112 -148 -134 -143 -140 8 -7 43 21 127 100 62 59
76 95 16 40z"/>
<path d="M1890 2621 c0 -6 1 -11 3 -11 2 0 108 -47 237 -105 129 -58 237 -105
242 -105 21 0 4 19 -29 33 -21 8 -126 54 -233 102 -107 48 -201 89 -207 92 -7
3 -13 0 -13 -6z"/>
<path d="M2040 2592 c0 -7 235 -117 343 -161 5 -2 8 2 6 8 -4 11 -321 159
-341 161 -5 0 -8 -4 -8 -8z"/>
<path d="M2166 2581 c-3 -5 16 -18 42 -29 26 -11 82 -36 125 -56 48 -22 77
-31 77 -23 0 6 -28 24 -63 38 -34 15 -88 38 -119 53 -32 14 -60 22 -62 17z"/>
<path d="M1862 2559 c4 -12 57 -38 353 -169 120 -53 154 -64 129 -41 -5 5
-112 55 -239 111 -126 56 -234 105 -239 107 -5 3 -7 0 -4 -8z"/>
<path d="M4100 2524 c-219 -81 -280 -104 -377 -140 -57 -20 -103 -41 -103 -47
0 -5 6 -7 13 -5 6 3 140 51 297 108 157 57 289 107 295 112 20 18 -34 6 -125
-28z"/>
<path d="M3990 2520 c-41 -15 -142 -53 -225 -83 -82 -30 -151 -59 -153 -66 -3
-8 3 -8 25 0 50 19 214 80 335 122 65 23 118 45 118 50 0 12 -21 7 -100 -23z"/>
<path d="M3715 2499 c-44 -16 -95 -34 -113 -40 -19 -6 -30 -15 -25 -20 9 -9
233 69 233 82 0 12 -5 11 -95 -22z"/>
<path d="M3900 2523 c-62 -22 -261 -93 -284 -102 -16 -7 -26 -14 -23 -18 8 -7
337 109 337 120 0 8 -8 8 -30 0z"/>
<path d="M3930 2423 c-96 -36 -202 -74 -234 -86 -33 -13 -62 -29 -64 -36 -3
-8 0 -11 7 -7 6 4 115 45 243 92 127 46 233 86 235 88 3 2 1 6 -4 9 -4 2 -87
-25 -183 -60z"/>
<path d="M1985 2461 c-3 -5 7 -14 23 -19 15 -6 94 -40 176 -76 82 -37 151 -64
154 -61 9 9 -2 15 -154 82 -193 84 -192 84 -199 74z"/>
<path d="M3806 2341 c-88 -31 -162 -64 -164 -71 -3 -9 1 -11 14 -6 11 4 88 33
172 63 83 31 152 60 152 65 0 12 -3 11 -174 -51z"/>
<path d="M2074 2379 c-3 -5 14 -18 38 -28 24 -10 81 -35 126 -56 46 -20 86
-34 90 -31 8 8 10 7 -125 69 -68 30 -125 51 -129 46z"/>
<path d="M3762 2280 c-105 -39 -119 -46 -110 -55 3 -3 48 10 99 29 52 19 104
37 117 41 12 3 20 11 17 16 -8 12 -5 13 -123 -31z"/>
<path d="M2040 2240 c0 -6 54 -10 143 -9 86 1 132 4 117 9 -37 12 -260 12
-260 0z"/>
<path d="M1930 2213 c0 -6 54 -13 128 -16 181 -10 262 -9 262 3 0 6 -44 10
-112 10 -62 0 -150 3 -195 7 -53 4 -83 2 -83 -4z"/>
<path d="M3650 2193 c0 -6 28 -13 61 -17 93 -9 199 -7 199 4 0 6 -28 10 -62
10 -35 0 -93 3 -130 7 -43 4 -68 2 -68 -4z"/>
<path d="M1770 2182 c0 -6 33 -13 73 -16 132 -10 477 -15 477 -7 0 5 -69 11
-152 15 -84 3 -208 9 -275 12 -82 4 -123 3 -123 -4z"/>
<path d="M1640 2153 c0 -14 124 -21 435 -27 148 -3 236 -2 215 3 -19 5 -132
12 -250 15 -118 4 -257 9 -307 13 -61 4 -93 2 -93 -4z"/>
<path d="M3650 2153 c0 -14 98 -23 246 -23 76 0 124 4 124 10 0 6 -36 10 -87
10 -49 0 -132 3 -185 7 -64 4 -98 2 -98 -4z"/>
<path d="M1770 2112 c0 -5 55 -12 133 -16 387 -18 417 -18 417 -9 0 7 -75 13
-192 17 -106 4 -230 9 -275 12 -53 4 -83 3 -83 -4z"/>
<path d="M3650 2111 c0 -7 27 -11 78 -11 44 0 162 -3 263 -6 119 -3 179 -2
169 4 -23 15 -510 27 -510 13z"/>
<path d="M3650 2083 c0 -11 123 -19 453 -29 136 -5 207 -4 207 3 0 6 -95 13
-252 17 -139 4 -288 9 -330 13 -49 4 -78 2 -78 -4z"/>
<path d="M1920 2068 c0 -8 111 -17 273 -21 70 -1 127 1 127 5 0 4 -1 9 -2 9
-10 6 -398 13 -398 7z"/>
<path d="M3650 2043 c0 -6 98 -13 260 -19 206 -7 260 -6 260 4 0 9 -28 12
-108 12 -60 0 -177 3 -260 7 -100 4 -152 3 -152 -4z"/>
<path d="M2040 2023 c0 -10 268 -28 278 -18 12 12 -11 15 -141 22 -89 4 -137
3 -137 -4z"/>
<path d="M3644 2009 c-4 -7 65 -12 289 -23 89 -4 121 9 45 18 -72 9 -329 13
-334 5z"/>
<path d="M2255 1969 c-27 -11 -81 -31 -119 -44 -72 -26 -83 -32 -74 -40 2 -3
56 14 119 36 63 23 122 43 132 46 19 6 23 23 5 22 -7 0 -35 -10 -63 -20z"/>
<path d="M3645 1960 c29 -12 255 -12 255 0 0 6 -52 10 -137 9 -87 0 -131 -4
-118 -9z"/>
<path d="M2152 1889 c-101 -37 -186 -70 -190 -73 -18 -18 21 -8 183 50 165 60
206 78 194 87 -2 2 -87 -27 -187 -64z"/>
<path d="M3625 1931 c-8 -13 231 -119 242 -107 8 8 14 5 -119 63 -65 29 -120
48 -123 44z"/>
<path d="M2110 1835 c-287 -106 -280 -103 -280 -113 0 -5 117 34 260 87 143
52 260 99 260 103 0 12 -1 12 -240 -77z"/>
<path d="M3610 1892 c0 -6 249 -123 342 -160 4 -2 8 1 8 8 0 6 -21 20 -47 32
-27 11 -101 45 -166 74 -120 55 -137 60 -137 46z"/>
<path d="M2275 1858 c-84 -31 -202 -74 -420 -152 -120 -43 -167 -66 -137 -66
6 0 53 15 104 34 51 19 190 69 308 112 118 42 219 81 224 85 22 19 -4 15 -79
-13z"/>
<path d="M3600 1861 c0 -16 477 -228 487 -217 9 9 14 6 -192 96 -104 46 -211
93 -237 106 -53 27 -58 28 -58 15z"/>
<path d="M2135 1769 c-121 -45 -235 -85 -252 -90 -18 -6 -33 -14 -33 -19 0
-16 -39 -28 400 131 111 40 151 59 120 59 -8 -1 -114 -37 -235 -81z"/>
<path d="M3585 1829 c-4 -5 4 -13 17 -18 13 -5 59 -26 103 -46 44 -20 148 -66
230 -102 83 -36 172 -76 198 -90 26 -13 53 -21 59 -17 7 4 -9 16 -38 29 -148
67 -438 197 -496 223 -38 18 -70 27 -73 21z"/>
<path d="M2195 1755 c-93 -35 -174 -66 -180 -68 -5 -2 -7 -7 -4 -11 3 -3 69
17 145 45 76 27 160 57 187 66 26 9 47 20 47 25 0 14 -20 8 -195 -57z"/>
<path d="M3570 1798 c1 -13 452 -218 479 -218 30 0 -8 20 -203 104 -109 48
-216 96 -237 107 -28 14 -39 16 -39 7z"/>
<path d="M2335 1761 c-22 -10 -77 -31 -122 -46 -46 -16 -83 -33 -83 -37 0 -4
4 -8 8 -8 21 0 271 97 265 103 -9 10 -23 8 -68 -12z"/>
<path d="M3550 1767 c0 -12 341 -168 349 -161 10 10 -24 28 -182 98 -92 41
-167 69 -167 63z"/>
<path d="M2299 1658 c-57 -51 -96 -94 -89 -96 7 -3 15 0 19 4 3 5 47 45 96 88
50 44 92 83 93 88 10 25 -27 -2 -119 -84z"/>
<path d="M3525 1730 c-3 -4 37 -26 88 -48 159 -70 169 -74 165 -61 -5 16 -246
120 -253 109z"/>
<path d="M2390 1687 c-66 -61 -201 -182 -230 -205 -14 -11 -22 -24 -17 -28 4
-4 17 2 30 12 60 54 215 193 246 220 18 17 30 34 25 37 -5 3 -30 -13 -54 -36z"/>
<path d="M3500 1702 c0 -14 196 -203 203 -195 8 7 -181 203 -195 203 -5 0 -8
-3 -8 -8z"/>
<path d="M2255 1518 c-192 -173 -217 -198 -198 -198 10 0 407 357 411 371 9
24 -27 -5 -213 -173z"/>
<path d="M2450 1648 c-19 -17 -60 -54 -90 -82 -31 -28 -131 -118 -222 -200
-92 -82 -165 -153 -162 -158 5 -8 79 53 199 163 28 25 104 94 170 154 159 143
158 142 148 148 -4 3 -24 -9 -43 -25z"/>
<path d="M3480 1674 c0 -5 17 -25 37 -46 20 -21 34 -41 30 -44 -4 -4 -24 13
-45 36 -21 24 -41 39 -45 34 -6 -11 367 -402 376 -394 7 6 -58 78 -191 212
-53 54 -93 100 -89 104 4 4 48 -36 98 -89 50 -53 95 -94 101 -91 5 3 -51 67
-124 142 -132 136 -148 151 -148 136z"/>
<path d="M2305 1467 c-189 -172 -211 -193 -201 -199 2 -2 82 67 178 153 95 86
188 169 207 186 19 16 30 32 25 35 -5 4 -99 -76 -209 -175z"/>
<path d="M3430 1623 c0 -4 33 -41 73 -82 333 -348 396 -411 400 -404 3 5 -26
42 -65 83 -135 142 -399 410 -403 410 -3 0 -5 -3 -5 -7z"/>
<path d="M2378 1485 c-81 -74 -143 -137 -139 -140 10 -5 301 253 301 267 0 18
-21 2 -162 -127z"/>
<path d="M3400 1603 c0 -12 377 -399 383 -393 6 6 -44 61 -239 264 -125 129
-144 146 -144 129z"/>
<path d="M2510 1548 c-25 -22 -72 -65 -104 -94 -32 -30 -56 -57 -53 -61 4 -3
40 25 82 62 41 37 89 79 105 93 29 26 38 42 23 42 -5 0 -28 -19 -53 -42z"/>
<path d="M3377 1582 c-3 -4 57 -72 132 -151 76 -80 140 -140 143 -135 4 5 -56
73 -132 151 -77 79 -141 139 -143 135z"/>
<path d="M2576 1528 c-31 -72 -87 -194 -96 -210 -7 -13 -7 -18 3 -18 10 0 49
78 124 248 3 6 0 12 -6 12 -6 0 -17 -15 -25 -32z"/>
<path d="M3340 1553 c1 -15 190 -207 196 -200 4 3 -35 52 -86 107 -84 91 -111
114 -110 93z"/>
<path d="M2594 1474 c-50 -111 -124 -271 -132 -286 -2 -5 1 -8 7 -8 18 0 179
355 167 367 -3 3 -22 -29 -42 -73z"/>
<path d="M3316 1542 c-4 -7 87 -249 100 -261 2 -2 7 -2 10 1 4 5 -90 256 -101
266 -2 2 -6 -1 -9 -6z"/>
<path d="M2626 1458 c-19 -40 -70 -153 -115 -252 -45 -98 -80 -181 -77 -184 3
-3 8 -3 10 -1 5 4 194 412 222 477 9 21 11 32 3 32 -5 0 -25 -33 -43 -72z"/>
<path d="M3280 1522 c0 -24 143 -371 151 -366 5 3 0 26 -10 52 -119 298 -141
347 -141 314z"/>
<path d="M2642 1407 c-28 -61 -91 -202 -141 -311 -50 -109 -89 -201 -86 -204
8 -9 10 -5 98 188 47 102 97 212 112 245 74 161 83 185 76 190 -5 2 -31 -46
-59 -108z"/>
<path d="M3242 1504 c3 -5 49 -119 103 -254 54 -135 100 -247 102 -249 1 -2 6
-1 10 2 5 6 -49 148 -165 431 -16 39 -34 72 -42 74 -7 3 -11 1 -8 -4z"/>
<path d="M2711 1478 c-5 -13 -44 -99 -86 -193 -43 -93 -90 -198 -106 -233 -16
-35 -24 -62 -17 -60 12 4 238 482 238 503 0 15 -22 2 -29 -17z"/>
<path d="M3210 1495 c0 -3 53 -137 119 -298 65 -160 122 -302 125 -314 7 -20
26 -33 26 -17 0 5 -70 180 -228 572 -14 34 -29 62 -34 62 -4 0 -8 -2 -8 -5z"/>
<path d="M2752 1474 c-12 -23 -127 -272 -148 -321 -24 -56 5 -38 31 20 13 28
49 108 80 176 30 68 54 129 52 135 -2 6 -9 2 -15 -10z"/>
<path d="M3180 1481 c0 -4 32 -86 71 -182 39 -96 84 -209 101 -251 16 -43 34
-78 40 -78 5 0 8 4 6 9 -1 5 -48 122 -103 260 -87 218 -115 277 -115 242z"/>
<path d="M3148 1474 c-6 -5 134 -360 146 -372 21 -21 6 27 -59 188 -80 195
-79 193 -87 184z"/>
<path d="M2741 1353 c-66 -145 -65 -143 -53 -143 5 0 33 53 62 118 65 146 64
142 54 142 -5 0 -33 -53 -63 -117z"/>
<path d="M3113 1429 c7 -19 31 -77 52 -129 40 -98 55 -126 55 -99 0 25 -97
253 -109 257 -9 3 -8 -6 2 -29z"/>
<path d="M2850 1310 c0 -87 4 -140 10 -140 6 0 10 53 10 140 0 87 -4 140 -10
140 -6 0 -10 -53 -10 -140z"/>
<path d="M2890 1250 c0 -127 4 -200 10 -200 6 0 10 73 10 200 0 127 -4 200
-10 200 -6 0 -10 -73 -10 -200z"/>
<path d="M2930 1175 c0 -177 4 -275 10 -275 6 0 10 98 10 275 0 177 -4 275
-10 275 -6 0 -10 -98 -10 -275z"/>
<path d="M2975 1105 c0 -192 1 -270 2 -172 2 98 2 256 0 350 -1 95 -3 15 -2
-178z"/>
<path d="M3000 1175 c0 -177 4 -275 10 -275 6 0 10 98 10 275 0 177 -4 275
-10 275 -6 0 -10 -98 -10 -275z"/>
<path d="M3030 1250 c0 -171 2 -200 15 -200 13 0 15 29 15 200 0 171 -2 200
-15 200 -13 0 -15 -29 -15 -200z"/>
<path d="M3070 1310 c0 -87 4 -140 10 -140 6 0 10 53 10 140 0 87 -4 140 -10
140 -6 0 -10 -53 -10 -140z"/>
</g>
</svg>
